<?xml version="1.0" encoding="UTF-8" standalone="no"?>
<!DOCTYPE svg PUBLIC "-//W3C//DTD SVG 1.1//EN"
 "http://www.w3.org/Graphics/SVG/1.1/DTD/svg11.dtd">
<!-- Generated by graphviz version 2.43.0 (0)
 -->
<!-- Title: ExecutionClosedLoop Pages: 1 -->
<svg width="1307pt" height="751pt"
 viewBox="0.00 0.00 1307.00 751.00" xmlns="http://www.w3.org/2000/svg" xmlns:xlink="http://www.w3.org/1999/xlink">
<g id="graph0" class="graph" transform="scale(1 1) rotate(0) translate(18 733)">
<title>ExecutionClosedLoop</title>
<g id="clust1" class="cluster">
<title>cluster_planning</title>
<path fill="#f4e8d7" stroke="#76513b" d="M20,-589C20,-589 749,-589 749,-589 755,-589 761,-595 761,-601 761,-601 761,-695 761,-695 761,-701 755,-707 749,-707 749,-707 20,-707 20,-707 14,-707 8,-701 8,-695 8,-695 8,-601 8,-601 8,-595 14,-589 20,-589"/>
<text text-anchor="middle" x="102.5" y="-689.4" font-family="Noto Sans CJK SC" font-size="17.00" fill="#332017">运控计算域：非硬实时</text>
</g>
<g id="clust3" class="cluster">
<title>cluster_supervision</title>
<path fill="#ece7d8" stroke="#687157" d="M613,-440C613,-440 1170,-440 1170,-440 1176,-440 1182,-446 1182,-452 1182,-452 1182,-534 1182,-534 1182,-540 1176,-546 1170,-546 1170,-546 613,-546 613,-546 607,-546 601,-540 601,-534 601,-534 601,-452 601,-452 601,-446 607,-440 613,-440"/>
<text text-anchor="middle" x="721.5" y="-528.4" font-family="Noto Sans CJK SC" font-size="17.00" fill="#332017">执行监督域：非硬实时状态机</text>
</g>
<g id="clust5" class="cluster">
<title>cluster_adapter</title>
<path fill="#efe1cf" stroke="#9b6548" d="M605,-289C605,-289 938,-289 938,-289 944,-289 950,-295 950,-301 950,-301 950,-395 950,-395 950,-401 944,-407 938,-407 938,-407 605,-407 605,-407 599,-407 593,-401 593,-395 593,-395 593,-301 593,-301 593,-295 599,-289 605,-289"/>
<text text-anchor="middle" x="657.5" y="-389.4" font-family="Noto Sans CJK SC" font-size="17.00" fill="#332017">Adapter Seam</text>
</g>
<g id="clust7" class="cluster">
<title>cluster_realtime</title>
<path fill="#eadbc6" stroke="#4b2f22" stroke-width="1.5" d="M469,-138C469,-138 1182,-138 1182,-138 1188,-138 1194,-144 1194,-150 1194,-150 1194,-244 1194,-244 1194,-250 1188,-256 1182,-256 1182,-256 469,-256 469,-256 463,-256 457,-250 457,-244 457,-244 457,-150 457,-150 457,-144 463,-138 469,-138"/>
<text text-anchor="middle" x="577.5" y="-238.4" font-family="Noto Sans CJK SC" font-size="17.00" fill="#332017">主站实时域：确定性控制周期</text>
</g>
<g id="clust9" class="cluster">
<title>cluster_parallel</title>
<path fill="#f5ead8" stroke="#ad784c" d="M368,-8C368,-8 759,-8 759,-8 765,-8 771,-14 771,-20 771,-20 771,-102 771,-102 771,-108 765,-114 759,-114 759,-114 368,-114 368,-114 362,-114 356,-108 356,-102 356,-102 356,-20 356,-20 356,-14 362,-8 368,-8"/>
<text text-anchor="middle" x="463" y="-96.4" font-family="Noto Sans CJK SC" font-size="17.00" fill="#332017">独立执行器与语义 Barrier</text>
</g>
<!-- path -->
<g id="node1" class="node">
<title>path</title>
<path fill="#fffaf0" stroke="#76513b" stroke-width="1.15" d="M114.5,-639C114.5,-639 27.5,-639 27.5,-639 21.5,-639 15.5,-633 15.5,-627 15.5,-627 15.5,-615 15.5,-615 15.5,-609 21.5,-603 27.5,-603 27.5,-603 114.5,-603 114.5,-603 120.5,-603 126.5,-609 126.5,-615 126.5,-615 126.5,-627 126.5,-627 126.5,-633 120.5,-639 114.5,-639"/>
<text text-anchor="middle" x="71" y="-624.6" font-family="Noto Sans CJK SC" font-size="10.50" fill="#332017">Planner</text>
<text text-anchor="middle" x="71" y="-612.6" font-family="Noto Sans CJK SC" font-size="10.50" fill="#332017">几何路径 / 语义片段</text>
</g>
<!-- compose -->
<g id="node2" class="node">
<title>compose</title>
<path fill="#fffaf0" stroke="#76513b" stroke-width="1.15" d="M270,-639C270,-639 176,-639 176,-639 170,-639 164,-633 164,-627 164,-627 164,-615 164,-615 164,-609 170,-603 176,-603 176,-603 270,-603 270,-603 276,-603 282,-609 282,-615 282,-615 282,-627 282,-627 282,-633 276,-639 270,-639"/>
<text text-anchor="middle" x="223" y="-624.6" font-family="Noto Sans CJK SC" font-size="10.50" fill="#332017">TrajectoryComposer</text>
<text text-anchor="middle" x="223" y="-612.6" font-family="Noto Sans CJK SC" font-size="10.50" fill="#332017">拼接 + 双臂同步</text>
</g>
<!-- path&#45;&gt;compose -->
<g id="edge1" class="edge">
<title>path&#45;&gt;compose</title>
<path fill="none" stroke="#76513b" stroke-width="1.25" d="M126.71,-621C133.65,-621 146.46,-621 156.74,-621"/>
<polygon fill="#76513b" stroke="#76513b" stroke-width="1.25" points="156.97,-623.45 163.97,-621 156.97,-618.55 156.97,-623.45"/>
</g>
<!-- smooth -->
<g id="node3" class="node">
<title>smooth</title>
<path fill="#fffaf0" stroke="#76513b" stroke-width="1.15" d="M390,-639C390,-639 332,-639 332,-639 326,-639 320,-633 320,-627 320,-627 320,-615 320,-615 320,-609 326,-603 332,-603 332,-603 390,-603 390,-603 396,-603 402,-609 402,-615 402,-615 402,-627 402,-627 402,-633 396,-639 390,-639"/>
<text text-anchor="middle" x="361" y="-624.6" font-family="Noto Sans CJK SC" font-size="10.50" fill="#332017">Smoother</text>
<text text-anchor="middle" x="361" y="-612.6" font-family="Noto Sans CJK SC" font-size="10.50" fill="#332017">连续性 + 约束</text>
</g>
<!-- compose&#45;&gt;smooth -->
<g id="edge2" class="edge">
<title>compose&#45;&gt;smooth</title>
<path fill="none" stroke="#76513b" stroke-width="1.25" d="M282.06,-621C291.83,-621 304.57,-621 312.8,-621"/>
<polygon fill="#76513b" stroke="#76513b" stroke-width="1.25" points="312.92,-623.45 319.92,-621 312.92,-618.55 312.92,-623.45"/>
</g>
<!-- timing -->
<g id="node4" class="node">
<title>timing</title>
<path fill="#ddc7aa" stroke="#76513b" stroke-width="1.7" d="M540,-645C540,-645 452,-645 452,-645 446,-645 440,-639 440,-633 440,-633 440,-609 440,-609 440,-603 446,-597 452,-597 452,-597 540,-597 540,-597 546,-597 552,-603 552,-609 552,-609 552,-633 552,-633 552,-639 546,-645 540,-645"/>
<text text-anchor="middle" x="496" y="-630.6" font-family="Noto Sans CJK SC" font-size="10.50" fill="#332017">TimeParameterizer</text>
<text text-anchor="middle" x="496" y="-618.6" font-family="Noto Sans CJK SC" font-size="10.50" fill="#332017">position + velocity</text>
<text text-anchor="middle" x="496" y="-606.6" font-family="Noto Sans CJK SC" font-size="10.50" fill="#332017">acceleration + time</text>
</g>
<!-- smooth&#45;&gt;timing -->
<g id="edge3" class="edge">
<title>smooth&#45;&gt;timing</title>
<path fill="none" stroke="#76513b" stroke-width="1.25" d="M402.16,-621C404.55,-621 406,-621 406,-621 406,-621 420.2,-621 432.64,-621"/>
<polygon fill="#76513b" stroke="#76513b" stroke-width="1.25" points="432.64,-623.45 439.64,-621 432.64,-618.55 432.64,-623.45"/>
</g>
<!-- validate -->
<g id="node5" class="node">
<title>validate</title>
<path fill="#fffaf0" stroke="#76513b" stroke-width="1.15" d="M740.5,-639C740.5,-639 601.5,-639 601.5,-639 595.5,-639 589.5,-633 589.5,-627 589.5,-627 589.5,-615 589.5,-615 589.5,-609 595.5,-603 601.5,-603 601.5,-603 740.5,-603 740.5,-603 746.5,-603 752.5,-609 752.5,-615 752.5,-615 752.5,-627 752.5,-627 752.5,-633 746.5,-639 740.5,-639"/>
<text text-anchor="middle" x="671" y="-624.6" font-family="Noto Sans CJK SC" font-size="10.50" fill="#332017">TrajectoryValidator</text>
<text text-anchor="middle" x="671" y="-612.6" font-family="Noto Sans CJK SC" font-size="10.50" fill="#332017">字段 / 限位 / snapshot / profile</text>
</g>
<!-- timing&#45;&gt;validate -->
<g id="edge4" class="edge">
<title>timing&#45;&gt;validate</title>
<path fill="none" stroke="#76513b" stroke-width="1.25" d="M552.39,-621C553.64,-621 554.33,-621 554.33,-621 554.33,-621 567.9,-621 581.95,-621"/>
<polygon fill="#76513b" stroke="#76513b" stroke-width="1.25" points="582.28,-623.45 589.28,-621 582.28,-618.55 582.28,-623.45"/>
</g>
<!-- precheck -->
<g id="node6" class="node">
<title>precheck</title>
<path fill="#687157" stroke="#76513b" stroke-width="1.15" d="M721,-484C721,-484 621,-484 621,-484 615,-484 609,-478 609,-472 609,-472 609,-460 609,-460 609,-454 615,-448 621,-448 621,-448 721,-448 721,-448 727,-448 733,-454 733,-460 733,-460 733,-472 733,-472 733,-478 727,-484 721,-484"/>
<text text-anchor="middle" x="671" y="-469.6" font-family="Noto Sans CJK SC" font-size="10.50" fill="#fffaf0">ExecutionSupervisor</text>
<text text-anchor="middle" x="671" y="-457.6" font-family="Noto Sans CJK SC" font-size="10.50" fill="#fffaf0">起点 + 场景 + 资源复核</text>
</g>
<!-- validate&#45;&gt;precheck -->
<g id="edge13" class="edge">
<title>validate&#45;&gt;precheck</title>
<path fill="none" stroke="#76513b" stroke-width="1.7" d="M671,-602.75C671,-575.54 671,-522.58 671,-491.46"/>
<polygon fill="#76513b" stroke="#76513b" stroke-width="1.7" points="673.45,-491.43 671,-484.43 668.55,-491.43 673.45,-491.43"/>
<text text-anchor="middle" x="715" y="-566.96" font-family="Noto Sans CJK SC" font-size="8.80" fill="#76513b">TimedJointTrajectory</text>
<text text-anchor="middle" x="715" y="-556.96" font-family="Noto Sans CJK SC" font-size="8.80" fill="#76513b">velocity 必需</text>
</g>
<!-- monitor -->
<g id="node7" class="node">
<title>monitor</title>
<path fill="#687157" stroke="#76513b" stroke-width="1.15" d="M982.5,-484C982.5,-484 821.5,-484 821.5,-484 815.5,-484 809.5,-478 809.5,-472 809.5,-472 809.5,-460 809.5,-460 809.5,-454 815.5,-448 821.5,-448 821.5,-448 982.5,-448 982.5,-448 988.5,-448 994.5,-454 994.5,-460 994.5,-460 994.5,-472 994.5,-472 994.5,-478 988.5,-484 982.5,-484"/>
<text text-anchor="middle" x="902" y="-469.6" font-family="Noto Sans CJK SC" font-size="10.50" fill="#fffaf0">ExecutionSupervisor</text>
<text text-anchor="middle" x="902" y="-457.6" font-family="Noto Sans CJK SC" font-size="10.50" fill="#fffaf0">accepted / progress / cancel / final</text>
</g>
<!-- precheck&#45;&gt;monitor -->
<g id="edge5" class="edge">
<title>precheck&#45;&gt;monitor</title>
<path fill="none" stroke="#76513b" stroke-width="1.25" d="M733.21,-466C754.4,-466 778.66,-466 802.05,-466"/>
<polygon fill="#76513b" stroke="#76513b" stroke-width="1.25" points="802.28,-468.45 809.28,-466 802.28,-463.55 802.28,-468.45"/>
<text text-anchor="middle" x="771.25" y="-471.96" font-family="Noto Sans CJK SC" font-size="8.80" fill="#76513b">goal accepted</text>
</g>
<!-- adapter -->
<g id="node10" class="node">
<title>adapter</title>
<path fill="#fffaf0" stroke="#76513b" stroke-width="1.15" d="M729,-345C729,-345 613,-345 613,-345 607,-345 601,-339 601,-333 601,-333 601,-309 601,-309 601,-303 607,-297 613,-297 613,-297 729,-297 729,-297 735,-297 741,-303 741,-309 741,-309 741,-333 741,-333 741,-339 735,-345 729,-345"/>
<text text-anchor="middle" x="671" y="-330.6" font-family="Noto Sans CJK SC" font-size="10.50" fill="#332017">ExecutionAdapter</text>
<text text-anchor="middle" x="671" y="-318.6" font-family="Noto Sans CJK SC" font-size="10.50" fill="#332017">name / order / sign / unit</text>
<text text-anchor="middle" x="671" y="-306.6" font-family="Noto Sans CJK SC" font-size="10.50" fill="#332017">protocol + error mapping</text>
</g>
<!-- precheck&#45;&gt;adapter -->
<g id="edge15" class="edge">
<title>precheck&#45;&gt;adapter</title>
<path fill="none" stroke="#76513b" stroke-width="1.25" d="M671,-447.75C671,-424.19 671,-381.58 671,-352.55"/>
<polygon fill="#76513b" stroke="#76513b" stroke-width="1.25" points="673.45,-352.48 671,-345.48 668.55,-352.48 673.45,-352.48"/>
<text text-anchor="middle" x="712" y="-417.96" font-family="Noto Sans CJK SC" font-size="8.80" fill="#76513b">完整轨迹 + deadline</text>
</g>
<!-- final -->
<g id="node8" class="node">
<title>final</title>
<path fill="#fffaf0" stroke="#76513b" stroke-width="1.15" d="M1161.5,-484C1161.5,-484 1076.5,-484 1076.5,-484 1070.5,-484 1064.5,-478 1064.5,-472 1064.5,-472 1064.5,-460 1064.5,-460 1064.5,-454 1070.5,-448 1076.5,-448 1076.5,-448 1161.5,-448 1161.5,-448 1167.5,-448 1173.5,-454 1173.5,-460 1173.5,-460 1173.5,-472 1173.5,-472 1173.5,-478 1167.5,-484 1161.5,-484"/>
<text text-anchor="middle" x="1119" y="-469.6" font-family="Noto Sans CJK SC" font-size="10.50" fill="#332017">MotionEngine</text>
<text text-anchor="middle" x="1119" y="-457.6" font-family="Noto Sans CJK SC" font-size="10.50" fill="#332017">继续 / 重规划 / 终止</text>
</g>
<!-- monitor&#45;&gt;final -->
<g id="edge6" class="edge">
<title>monitor&#45;&gt;final</title>
<path fill="none" stroke="#76513b" stroke-width="1.25" d="M994.66,-466C1015.79,-466 1037.75,-466 1057.22,-466"/>
<polygon fill="#76513b" stroke="#76513b" stroke-width="1.25" points="1057.27,-468.45 1064.27,-466 1057.27,-463.55 1057.27,-468.45"/>
<text text-anchor="middle" x="1029.5" y="-471.96" font-family="Noto Sans CJK SC" font-size="8.80" fill="#76513b">typed Result</text>
</g>
<!-- monitor&#45;&gt;adapter -->
<g id="edge21" class="edge">
<title>monitor&#45;&gt;adapter</title>
<path fill="none" stroke="#8a4037" stroke-width="1.25" d="M809.05,-450.39C774.25,-444.91 743,-440 743,-440 743,-440 570,-425 570,-425 570,-425 570,-415 570,-415 570,-415 610.64,-377.58 640.36,-350.21"/>
<polygon fill="#8a4037" stroke="#8a4037" stroke-width="1.25" points="642.28,-351.77 645.77,-345.23 638.96,-348.17 642.28,-351.77"/>
<text text-anchor="middle" x="618.5" y="-417.96" font-family="Noto Sans CJK SC" font-size="8.80" fill="#8a4037">cancel / controlled stop</text>
</g>
<!-- pp -->
<g id="node16" class="node">
<title>pp</title>
<path fill="#fffaf0" stroke="#76513b" stroke-width="1.15" d="M589,-52C589,-52 487,-52 487,-52 481,-52 475,-46 475,-40 475,-40 475,-28 475,-28 475,-22 481,-16 487,-16 487,-16 589,-16 589,-16 595,-16 601,-22 601,-28 601,-28 601,-40 601,-40 601,-46 595,-52 589,-52"/>
<text text-anchor="middle" x="538" y="-37.6" font-family="Noto Sans CJK SC" font-size="10.50" fill="#332017">PP / updown</text>
<text text-anchor="middle" x="538" y="-25.6" font-family="Noto Sans CJK SC" font-size="10.50" fill="#332017">独立 profile command</text>
</g>
<!-- final&#45;&gt;pp -->
<g id="edge22" class="edge">
<title>final&#45;&gt;pp</title>
<path fill="none" stroke="#76513b" stroke-width="1.25" d="M1064.19,-453.09C1034.57,-446.65 1004,-440 1004,-440 1004,-440 667,-425 667,-425 667,-425 589,-407 589,-407 589,-407 453,-256 453,-256 453,-256 453,-138 453,-138 453,-138 494.5,-87.72 519.5,-57.42"/>
<polygon fill="#76513b" stroke="#76513b" stroke-width="1.25" points="521.4,-58.97 523.96,-52.01 517.62,-55.85 521.4,-58.97"/>
<text text-anchor="middle" x="502.5" y="-266.96" font-family="Noto Sans CJK SC" font-size="8.80" fill="#76513b">stage command</text>
</g>
<!-- tool -->
<g id="node17" class="node">
<title>tool</title>
<path fill="#fffaf0" stroke="#76513b" stroke-width="1.15" d="M443.5,-52C443.5,-52 376.5,-52 376.5,-52 370.5,-52 364.5,-46 364.5,-40 364.5,-40 364.5,-28 364.5,-28 364.5,-22 370.5,-16 376.5,-16 376.5,-16 443.5,-16 443.5,-16 449.5,-16 455.5,-22 455.5,-28 455.5,-28 455.5,-40 455.5,-40 455.5,-46 449.5,-52 443.5,-52"/>
<text text-anchor="middle" x="410" y="-37.6" font-family="Noto Sans CJK SC" font-size="10.50" fill="#332017">Tool IO</text>
<text text-anchor="middle" x="410" y="-25.6" font-family="Noto Sans CJK SC" font-size="10.50" fill="#332017">vacuum / valve</text>
</g>
<!-- final&#45;&gt;tool -->
<g id="edge23" class="edge">
<title>final&#45;&gt;tool</title>
<path fill="none" stroke="#76513b" stroke-width="1.25" d="M1064.19,-453.09C1034.57,-446.65 1004,-440 1004,-440 1004,-440 566,-425 566,-425 566,-425 479,-407 479,-407 479,-407 389,-274 389,-274 389,-274 389,-264 389,-264 389,-264 402.37,-118.21 407.77,-59.28"/>
<polygon fill="#76513b" stroke="#76513b" stroke-width="1.25" points="410.22,-59.41 408.42,-52.21 405.34,-58.96 410.22,-59.41"/>
<text text-anchor="middle" x="422.5" y="-266.96" font-family="Noto Sans CJK SC" font-size="8.80" fill="#76513b">stage command</text>
</g>
<!-- capability -->
<g id="node9" class="node">
<title>capability</title>
<path fill="#fffaf0" stroke="#76513b" stroke-width="1.15" d="M929.5,-339C929.5,-339 802.5,-339 802.5,-339 796.5,-339 790.5,-333 790.5,-327 790.5,-327 790.5,-315 790.5,-315 790.5,-309 796.5,-303 802.5,-303 802.5,-303 929.5,-303 929.5,-303 935.5,-303 941.5,-309 941.5,-315 941.5,-315 941.5,-327 941.5,-327 941.5,-333 935.5,-339 929.5,-339"/>
<text text-anchor="middle" x="866" y="-324.6" font-family="Noto Sans CJK SC" font-size="10.50" fill="#332017">ExecutionCapabilities</text>
<text text-anchor="middle" x="866" y="-312.6" font-family="Noto Sans CJK SC" font-size="10.50" fill="#332017">profile / fields / joints / stop</text>
</g>
<!-- capability&#45;&gt;validate -->
<g id="edge14" class="edge">
<title>capability&#45;&gt;validate</title>
<path fill="none" stroke="#76513b" stroke-width="1.25" stroke-dasharray="5,2" d="M883,-339.2C907.54,-364.04 950,-407 950,-407 950,-407 1186,-440 1186,-440 1186,-440 1186,-546 1186,-546 1186,-546 907.31,-586.05 759.95,-607.22"/>
<polygon fill="#76513b" stroke="#76513b" stroke-width="1.25" points="759.18,-604.85 752.6,-608.27 759.88,-609.7 759.18,-604.85"/>
<text text-anchor="middle" x="1219" y="-463.96" font-family="Noto Sans CJK SC" font-size="8.80" fill="#76513b">startup contract</text>
</g>
<!-- capability&#45;&gt;adapter -->
<g id="edge17" class="edge">
<title>capability&#45;&gt;adapter</title>
<path fill="none" stroke="#76513b" stroke-width="1.25" stroke-dasharray="5,2" d="M790.23,-321C776.47,-321 762.1,-321 748.29,-321"/>
<polygon fill="#76513b" stroke="#76513b" stroke-width="1.25" points="748.12,-318.55 741.12,-321 748.12,-323.45 748.12,-318.55"/>
<text text-anchor="middle" x="765.75" y="-326.96" font-family="Noto Sans CJK SC" font-size="8.80" fill="#76513b">binding</text>
</g>
<!-- buffer -->
<g id="node11" class="node">
<title>buffer</title>
<path fill="#fffaf0" stroke="#76513b" stroke-width="1.15" d="M700,-188C700,-188 642,-188 642,-188 636,-188 630,-182 630,-176 630,-176 630,-164 630,-164 630,-158 636,-152 642,-152 642,-152 700,-152 700,-152 706,-152 712,-158 712,-164 712,-164 712,-176 712,-176 712,-182 706,-188 700,-188"/>
<text text-anchor="middle" x="671" y="-173.6" font-family="Noto Sans CJK SC" font-size="10.50" fill="#332017">完整缓存轨迹</text>
<text text-anchor="middle" x="671" y="-161.6" font-family="Noto Sans CJK SC" font-size="10.50" fill="#332017">启动前校验</text>
</g>
<!-- adapter&#45;&gt;buffer -->
<g id="edge16" class="edge">
<title>adapter&#45;&gt;buffer</title>
<path fill="none" stroke="#76513b" stroke-width="1.25" d="M671,-296.72C671,-269.07 671,-223.18 671,-195.15"/>
<polygon fill="#76513b" stroke="#76513b" stroke-width="1.25" points="673.45,-195.09 671,-188.09 668.55,-195.09 673.45,-195.09"/>
<text text-anchor="middle" x="706" y="-266.96" font-family="Noto Sans CJK SC" font-size="8.80" fill="#76513b">buffered execute</text>
</g>
<!-- interpolate -->
<g id="node12" class="node">
<title>interpolate</title>
<path fill="#4b2f22" stroke="#76513b" stroke-width="1.8" d="M820,-194C820,-194 762,-194 762,-194 756,-194 750,-188 750,-182 750,-182 750,-158 750,-158 750,-152 756,-146 762,-146 762,-146 820,-146 820,-146 826,-146 832,-152 832,-158 832,-158 832,-182 832,-182 832,-188 826,-194 820,-194"/>
<text text-anchor="middle" x="791" y="-179.6" font-family="Noto Sans CJK SC" font-size="10.50" fill="#fff8ed">实时插值</text>
<text text-anchor="middle" x="791" y="-167.6" font-family="Noto Sans CJK SC" font-size="10.50" fill="#fff8ed">共享单调时钟</text>
<text text-anchor="middle" x="791" y="-155.6" font-family="Noto Sans CJK SC" font-size="10.50" fill="#fff8ed">多轴同步</text>
</g>
<!-- buffer&#45;&gt;interpolate -->
<g id="edge7" class="edge">
<title>buffer&#45;&gt;interpolate</title>
<path fill="none" stroke="#76513b" stroke-width="1.25" d="M712.33,-170C716.93,-170 732.43,-170 742.36,-170"/>
<polygon fill="#76513b" stroke="#76513b" stroke-width="1.25" points="742.62,-172.45 749.62,-170 742.62,-167.55 742.62,-172.45"/>
</g>
<!-- interpolate&#45;&gt;monitor -->
<g id="edge18" class="edge">
<title>interpolate&#45;&gt;monitor</title>
<path fill="none" stroke="#687157" stroke-width="1.25" d="M810.13,-194.23C830.85,-219.39 861,-256 861,-256 861,-256 902,-264 902,-264 902,-264 954,-289 954,-289 954,-289 954,-407 954,-407 954,-407 871,-415 871,-415 871,-415 871,-425 871,-425 871,-425 877.36,-433.2 884.32,-442.18"/>
<polygon fill="#687157" stroke="#687157" stroke-width="1.25" points="882.45,-443.77 888.67,-447.8 886.32,-440.77 882.45,-443.77"/>
<text text-anchor="middle" x="974" y="-318.96" font-family="Noto Sans CJK SC" font-size="8.80" fill="#687157">desired(t)</text>
</g>
<!-- setpoint -->
<g id="node13" class="node">
<title>setpoint</title>
<path fill="#fffaf0" stroke="#76513b" stroke-width="1.15" d="M964,-188C964,-188 882,-188 882,-188 876,-188 870,-182 870,-176 870,-176 870,-164 870,-164 870,-158 876,-152 882,-152 882,-152 964,-152 964,-152 970,-152 976,-158 976,-164 976,-164 976,-176 976,-176 976,-182 970,-188 964,-188"/>
<text text-anchor="middle" x="923" y="-173.6" font-family="Noto Sans CJK SC" font-size="10.50" fill="#332017">EtherCAT setpoint</text>
<text text-anchor="middle" x="923" y="-161.6" font-family="Noto Sans CJK SC" font-size="10.50" fill="#332017">每控制周期</text>
</g>
<!-- interpolate&#45;&gt;setpoint -->
<g id="edge8" class="edge">
<title>interpolate&#45;&gt;setpoint</title>
<path fill="none" stroke="#76513b" stroke-width="1.25" d="M832.11,-170C833.93,-170 835,-170 835,-170 835,-170 849.92,-170 862.38,-170"/>
<polygon fill="#76513b" stroke="#76513b" stroke-width="1.25" points="862.67,-172.45 869.67,-170 862.67,-167.55 862.67,-172.45"/>
</g>
<!-- drives -->
<g id="node14" class="node">
<title>drives</title>
<path fill="#fffaf0" stroke="#76513b" stroke-width="1.15" d="M1174,-188C1174,-188 1026,-188 1026,-188 1020,-188 1014,-182 1014,-176 1014,-176 1014,-164 1014,-164 1014,-158 1020,-152 1026,-152 1026,-152 1174,-152 1174,-152 1180,-152 1186,-158 1186,-164 1186,-164 1186,-176 1186,-176 1186,-182 1180,-188 1174,-188"/>
<text text-anchor="middle" x="1100" y="-173.6" font-family="Noto Sans CJK SC" font-size="10.50" fill="#332017">驱动器</text>
<text text-anchor="middle" x="1100" y="-161.6" font-family="Noto Sans CJK SC" font-size="10.50" fill="#332017">position / velocity / current loop</text>
</g>
<!-- setpoint&#45;&gt;drives -->
<g id="edge9" class="edge">
<title>setpoint&#45;&gt;drives</title>
<path fill="none" stroke="#76513b" stroke-width="1.25" d="M976.13,-170C979.75,-170 982,-170 982,-170 982,-170 993.68,-170 1006.65,-170"/>
<polygon fill="#76513b" stroke="#76513b" stroke-width="1.25" points="1006.92,-172.45 1013.92,-170 1006.92,-167.55 1006.92,-172.45"/>
</g>
<!-- drives&#45;&gt;monitor -->
<g id="edge19" class="edge">
<title>drives&#45;&gt;monitor</title>
<path fill="none" stroke="#687157" stroke-width="1.25" d="M1092.5,-188.35C1068.94,-242.85 998,-407 998,-407 998,-407 963.95,-427.57 936.4,-444.21"/>
<polygon fill="#687157" stroke="#687157" stroke-width="1.25" points="935.01,-442.19 930.28,-447.91 937.54,-446.39 935.01,-442.19"/>
<text text-anchor="middle" x="1086.5" y="-318.96" font-family="Noto Sans CJK SC" font-size="8.80" fill="#687157">actual(t) + error(t)</text>
</g>
<!-- safety -->
<g id="node15" class="node">
<title>safety</title>
<path fill="#f4dfd7" stroke="#8a4037" stroke-width="1.15" d="M598.5,-194C598.5,-194 477.5,-194 477.5,-194 471.5,-194 465.5,-188 465.5,-182 465.5,-182 465.5,-158 465.5,-158 465.5,-152 471.5,-146 477.5,-146 477.5,-146 598.5,-146 598.5,-146 604.5,-146 610.5,-152 610.5,-158 610.5,-158 610.5,-182 610.5,-182 610.5,-188 604.5,-194 598.5,-194"/>
<text text-anchor="middle" x="538" y="-179.6" font-family="Noto Sans CJK SC" font-size="10.50" fill="#332017">快速安全</text>
<text text-anchor="middle" x="538" y="-167.6" font-family="Noto Sans CJK SC" font-size="10.50" fill="#332017">watchdog / following error</text>
<text text-anchor="middle" x="538" y="-155.6" font-family="Noto Sans CJK SC" font-size="10.50" fill="#332017">fault / emergency stop</text>
</g>
<!-- drives&#45;&gt;safety -->
<g id="edge10" class="edge">
<title>drives&#45;&gt;safety</title>
<path fill="none" stroke="#76513b" stroke-width="1.25" d="M1073.85,-188.12C1040.19,-211.45 986,-249 986,-249 986,-249 621,-249 621,-249 621,-249 592.27,-221.66 568.62,-199.14"/>
<polygon fill="#76513b" stroke="#76513b" stroke-width="1.25" points="570.11,-197.18 563.35,-194.13 566.74,-200.73 570.11,-197.18"/>
<text text-anchor="middle" x="855" y="-266.96" font-family="Noto Sans CJK SC" font-size="8.80" fill="#76513b">encoder / drive state</text>
</g>
<!-- safety&#45;&gt;monitor -->
<g id="edge20" class="edge">
<title>safety&#45;&gt;monitor</title>
<path fill="none" stroke="#8a4037" stroke-width="1.25" d="M560.68,-194.23C585.25,-219.39 621,-256 621,-256 621,-256 902,-264 902,-264 902,-264 1128,-289 1128,-289 1128,-289 1128,-407 1128,-407 1128,-407 1041.39,-429.23 975.41,-446.16"/>
<polygon fill="#8a4037" stroke="#8a4037" stroke-width="1.25" points="974.45,-443.88 968.28,-447.99 975.67,-448.62 974.45,-443.88"/>
<text text-anchor="middle" x="1163" y="-318.96" font-family="Noto Sans CJK SC" font-size="8.80" fill="#8a4037">fault / stop result</text>
</g>
<!-- safety&#45;&gt;pp -->
<!-- barrier -->
<g id="node18" class="node">
<title>barrier</title>
<path fill="#fffaf0" stroke="#76513b" stroke-width="1.15" d="M751,-52C751,-52 651,-52 651,-52 645,-52 639,-46 639,-40 639,-40 639,-28 639,-28 639,-22 645,-16 651,-16 651,-16 751,-16 751,-16 757,-16 763,-22 763,-28 763,-28 763,-40 763,-40 763,-46 757,-52 751,-52"/>
<text text-anchor="middle" x="701" y="-37.6" font-family="Noto Sans CJK SC" font-size="10.50" fill="#332017">MotionEngine Barrier</text>
<text text-anchor="middle" x="701" y="-25.6" font-family="Noto Sans CJK SC" font-size="10.50" fill="#332017">等待确认再进入下一段</text>
</g>
<!-- pp&#45;&gt;barrier -->
<g id="edge11" class="edge">
<title>pp&#45;&gt;barrier</title>
<path fill="none" stroke="#76513b" stroke-width="1.25" d="M601.31,-34C609.58,-34 622.03,-34 631.79,-34"/>
<polygon fill="#76513b" stroke="#76513b" stroke-width="1.25" points="631.91,-36.45 638.91,-34 631.91,-31.55 631.91,-36.45"/>
</g>
<!-- tool&#45;&gt;barrier -->
<g id="edge12" class="edge">
<title>tool&#45;&gt;barrier</title>
<path fill="none" stroke="#76513b" stroke-width="1.25" d="M422.71,-52.15C439.23,-75.76 466,-114 466,-114 466,-114 475.5,-126 475.5,-126 475.5,-126 601.5,-126 601.5,-126 601.5,-126 646.56,-84.34 676.03,-57.08"/>
<polygon fill="#76513b" stroke="#76513b" stroke-width="1.25" points="677.87,-58.73 681.34,-52.18 674.54,-55.13 677.87,-58.73"/>
</g>
<!-- barrier&#45;&gt;final -->
<g id="edge25" class="edge">
<title>barrier&#45;&gt;final</title>
<path fill="none" stroke="#76513b" stroke-width="1.25" d="M763.19,-47.89C896.55,-75.53 1198,-138 1198,-138 1198,-138 1202,-289 1202,-289 1202,-289 1202,-407 1202,-407 1202,-407 1173.05,-427.23 1149.35,-443.79"/>
<polygon fill="#76513b" stroke="#76513b" stroke-width="1.25" points="1147.79,-441.89 1143.45,-447.91 1150.6,-445.91 1147.79,-441.89"/>
<text text-anchor="middle" x="1236" y="-266.96" font-family="Noto Sans CJK SC" font-size="8.80" fill="#76513b">confirmed Result</text>
</g>
</g>
</svg>
