<?xml version="1.0" encoding="UTF-8" standalone="no"?>
<!DOCTYPE svg PUBLIC "-//W3C//DTD SVG 1.1//EN"
 "http://www.w3.org/Graphics/SVG/1.1/DTD/svg11.dtd">
<!-- Generated by graphviz version 2.43.0 (0)
 -->
<!-- Title: MigrationRoadmap Pages: 1 -->
<svg width="1046pt" height="237pt"
 viewBox="0.00 0.00 1045.56 236.56" xmlns="http://www.w3.org/2000/svg" xmlns:xlink="http://www.w3.org/1999/xlink">
<g id="graph0" class="graph" transform="scale(1 1) rotate(0) translate(17.28 219.28)">
<title>MigrationRoadmap</title>
<!-- p0 -->
<g id="node1" class="node">
<title>p0</title>
<path fill="#fffaf0" stroke="#76513b" stroke-width="1.15" d="M165,-202C165,-202 15,-202 15,-202 9,-202 3,-196 3,-190 3,-190 3,-178 3,-178 3,-172 9,-166 15,-166 15,-166 165,-166 165,-166 171,-166 177,-172 177,-178 177,-178 177,-190 177,-190 177,-196 171,-202 165,-202"/>
<text text-anchor="middle" x="90" y="-186.84" font-family="Noto Sans CJK SC" font-size="10.20" fill="#332017">P0 · 合同基线</text>
<text text-anchor="middle" x="90" y="-175.84" font-family="Noto Sans CJK SC" font-size="10.20" fill="#332017">术语 / Interface / error taxonomy</text>
</g>
<!-- g0 -->
<g id="node2" class="node">
<title>g0</title>
<polygon fill="#efe1cf" stroke="#76513b" stroke-width="1.15" points="325.5,-202 216.5,-202 216.5,-166 331.5,-166 331.5,-196 325.5,-202"/>
<polyline fill="none" stroke="#76513b" stroke-width="1.15" points="325.5,-202 325.5,-196 "/>
<polyline fill="none" stroke="#76513b" stroke-width="1.15" points="331.5,-196 325.5,-196 "/>
<text text-anchor="middle" x="274" y="-186.84" font-family="Noto Sans CJK SC" font-size="10.20" fill="#332017">Gate</text>
<text text-anchor="middle" x="274" y="-175.84" font-family="Noto Sans CJK SC" font-size="10.20" fill="#332017">文档与 schema 一致</text>
</g>
<!-- p0&#45;&gt;g0 -->
<g id="edge1" class="edge">
<title>p0&#45;&gt;g0</title>
<path fill="none" stroke="#76513b" stroke-width="1.25" d="M177.34,-184C188.97,-184 201.5,-184 209.29,-184"/>
<polygon fill="#76513b" stroke="#76513b" stroke-width="1.25" points="209.32,-186.45 216.32,-184 209.32,-181.55 209.32,-186.45"/>
</g>
<!-- p3 -->
<g id="node7" class="node">
<title>p3</title>
<path fill="#fffaf0" stroke="#76513b" stroke-width="1.15" d="M167.5,-119C167.5,-119 12.5,-119 12.5,-119 6.5,-119 0.5,-113 0.5,-107 0.5,-107 0.5,-95 0.5,-95 0.5,-89 6.5,-83 12.5,-83 12.5,-83 167.5,-83 167.5,-83 173.5,-83 179.5,-89 179.5,-95 179.5,-95 179.5,-107 179.5,-107 179.5,-113 173.5,-119 167.5,-119"/>
<text text-anchor="middle" x="90" y="-103.84" font-family="Noto Sans CJK SC" font-size="10.20" fill="#332017">P3 · Twin 合同对齐</text>
<text text-anchor="middle" x="90" y="-92.84" font-family="Noto Sans CJK SC" font-size="10.20" fill="#332017">velocity / clock / feedback / faults</text>
</g>
<!-- p0&#45;&gt;p3 -->
<!-- p1 -->
<g id="node3" class="node">
<title>p1</title>
<path fill="#ddc7aa" stroke="#76513b" stroke-width="1.15" d="M493,-202C493,-202 383,-202 383,-202 377,-202 371,-196 371,-190 371,-190 371,-178 371,-178 371,-172 377,-166 383,-166 383,-166 493,-166 493,-166 499,-166 505,-172 505,-178 505,-178 505,-190 505,-190 505,-196 499,-202 493,-202"/>
<text text-anchor="middle" x="438" y="-186.84" font-family="Noto Sans CJK SC" font-size="10.20" fill="#332017">P1 · 无 ROS 纵向链</text>
<text text-anchor="middle" x="438" y="-175.84" font-family="Noto Sans CJK SC" font-size="10.20" fill="#332017">request → fake → result</text>
</g>
<!-- g0&#45;&gt;p1 -->
<g id="edge2" class="edge">
<title>g0&#45;&gt;p1</title>
<path fill="none" stroke="#76513b" stroke-width="1.25" d="M331.61,-184C337.63,-184 351.82,-184 363.82,-184"/>
<polygon fill="#76513b" stroke="#76513b" stroke-width="1.25" points="363.91,-186.45 370.91,-184 363.91,-181.55 363.91,-186.45"/>
</g>
<!-- g1 -->
<g id="node4" class="node">
<title>g1</title>
<polygon fill="#efe1cf" stroke="#76513b" stroke-width="1.15" points="655.5,-202 544.5,-202 544.5,-166 661.5,-166 661.5,-196 655.5,-202"/>
<polyline fill="none" stroke="#76513b" stroke-width="1.15" points="655.5,-202 655.5,-196 "/>
<polyline fill="none" stroke="#76513b" stroke-width="1.15" points="661.5,-196 655.5,-196 "/>
<text text-anchor="middle" x="603" y="-186.84" font-family="Noto Sans CJK SC" font-size="10.20" fill="#332017">Gate</text>
<text text-anchor="middle" x="603" y="-175.84" font-family="Noto Sans CJK SC" font-size="10.20" fill="#332017">CI 可重复 + 失败路径</text>
</g>
<!-- p1&#45;&gt;g1 -->
<g id="edge3" class="edge">
<title>p1&#45;&gt;g1</title>
<path fill="none" stroke="#76513b" stroke-width="1.25" d="M505.21,-184C514.7,-184 527.77,-184 536.96,-184"/>
<polygon fill="#76513b" stroke="#76513b" stroke-width="1.25" points="537.09,-186.45 544.09,-184 537.09,-181.55 537.09,-186.45"/>
</g>
<!-- p2 -->
<g id="node5" class="node">
<title>p2</title>
<path fill="#fffaf0" stroke="#76513b" stroke-width="1.15" d="M865,-202C865,-202 713,-202 713,-202 707,-202 701,-196 701,-190 701,-190 701,-178 701,-178 701,-172 707,-166 713,-166 713,-166 865,-166 865,-166 871,-166 877,-172 877,-178 877,-178 877,-190 877,-190 877,-196 871,-202 865,-202"/>
<text text-anchor="middle" x="789" y="-186.84" font-family="Noto Sans CJK SC" font-size="10.20" fill="#332017">P2 · 包装成熟算法</text>
<text text-anchor="middle" x="789" y="-175.84" font-family="Noto Sans CJK SC" font-size="10.20" fill="#332017">IK / planning / trajectory Adapter</text>
</g>
<!-- g1&#45;&gt;p2 -->
<g id="edge4" class="edge">
<title>g1&#45;&gt;p2</title>
<path fill="none" stroke="#76513b" stroke-width="1.25" d="M661.67,-184C663.77,-184 665,-184 665,-184 665,-184 678.89,-184 693.52,-184"/>
<polygon fill="#76513b" stroke="#76513b" stroke-width="1.25" points="693.71,-186.45 700.71,-184 693.71,-181.55 693.71,-186.45"/>
</g>
<!-- g2 -->
<g id="node6" class="node">
<title>g2</title>
<polygon fill="#efe1cf" stroke="#76513b" stroke-width="1.15" points="1005,-202 917,-202 917,-166 1011,-166 1011,-196 1005,-202"/>
<polyline fill="none" stroke="#76513b" stroke-width="1.15" points="1005,-202 1005,-196 "/>
<polyline fill="none" stroke="#76513b" stroke-width="1.15" points="1011,-196 1005,-196 "/>
<text text-anchor="middle" x="964" y="-186.84" font-family="Noto Sans CJK SC" font-size="10.20" fill="#332017">Gate</text>
<text text-anchor="middle" x="964" y="-175.84" font-family="Noto Sans CJK SC" font-size="10.20" fill="#332017">新旧结果可比较</text>
</g>
<!-- p2&#45;&gt;g2 -->
<g id="edge5" class="edge">
<title>p2&#45;&gt;g2</title>
<path fill="none" stroke="#76513b" stroke-width="1.25" d="M877.18,-184C891.54,-184 905.67,-184 905.67,-184 905.67,-184 907.13,-184 909.58,-184"/>
<polygon fill="#76513b" stroke="#76513b" stroke-width="1.25" points="909.91,-186.45 916.91,-184 909.91,-181.55 909.91,-186.45"/>
</g>
<!-- g2&#45;&gt;p3 -->
<g id="edge10" class="edge">
<title>g2&#45;&gt;p3</title>
<path fill="none" stroke="#9b6548" stroke-width="1.25" stroke-dasharray="5,2" d="M916.99,-172.62C900.96,-169.08 887,-166 887,-166 887,-166 209,-119 209,-119 209,-119 199.93,-117.7 186.8,-115.83"/>
<polygon fill="#9b6548" stroke="#9b6548" stroke-width="1.25" points="186.86,-113.36 179.58,-114.8 186.17,-118.21 186.86,-113.36"/>
<text text-anchor="middle" x="635.5" y="-140.2" font-family="Noto Sans CJK SC" font-size="8.50" fill="#9b6548">next evidence</text>
</g>
<!-- g3 -->
<g id="node8" class="node">
<title>g3</title>
<polygon fill="#efe1cf" stroke="#76513b" stroke-width="1.15" points="351,-119 219,-119 219,-83 357,-83 357,-113 351,-119"/>
<polyline fill="none" stroke="#76513b" stroke-width="1.15" points="351,-119 351,-113 "/>
<polyline fill="none" stroke="#76513b" stroke-width="1.15" points="357,-113 351,-113 "/>
<text text-anchor="middle" x="288" y="-103.84" font-family="Noto Sans CJK SC" font-size="10.20" fill="#332017">Gate</text>
<text text-anchor="middle" x="288" y="-92.84" font-family="Noto Sans CJK SC" font-size="10.20" fill="#332017">同一 suite 跑 Fake + Twin</text>
</g>
<!-- p3&#45;&gt;g3 -->
<g id="edge6" class="edge">
<title>p3&#45;&gt;g3</title>
<path fill="none" stroke="#76513b" stroke-width="1.25" d="M179.83,-101C190.79,-101 203.22,-101 211.73,-101"/>
<polygon fill="#76513b" stroke="#76513b" stroke-width="1.25" points="211.95,-103.45 218.95,-101 211.95,-98.55 211.95,-103.45"/>
</g>
<!-- old -->
<g id="node12" class="node">
<title>old</title>
<polygon fill="#fffaf0" stroke="#76513b" stroke-width="1.15" points="180,-36 4,-36 0,-32 0,0 176,0 180,-4 180,-36"/>
<polyline fill="none" stroke="#76513b" stroke-width="1.15" points="176,-32 0,-32 "/>
<polyline fill="none" stroke="#76513b" stroke-width="1.15" points="176,-32 176,0 "/>
<polyline fill="none" stroke="#76513b" stroke-width="1.15" points="176,-32 180,-36 "/>
<text text-anchor="middle" x="90" y="-20.84" font-family="Noto Sans CJK SC" font-size="10.20" fill="#332017">当前 ROS / MoveIt / Python 运行链</text>
<text text-anchor="middle" x="90" y="-9.84" font-family="Noto Sans CJK SC" font-size="10.20" fill="#332017">持续提供生产行为</text>
</g>
<!-- p3&#45;&gt;old -->
<!-- p4 -->
<g id="node9" class="node">
<title>p4</title>
<path fill="#f5ead8" stroke="#76513b" stroke-width="1.15" d="M513.5,-119C513.5,-119 408.5,-119 408.5,-119 402.5,-119 396.5,-113 396.5,-107 396.5,-107 396.5,-95 396.5,-95 396.5,-89 402.5,-83 408.5,-83 408.5,-83 513.5,-83 513.5,-83 519.5,-83 525.5,-89 525.5,-95 525.5,-95 525.5,-107 525.5,-107 525.5,-113 519.5,-119 513.5,-119"/>
<text text-anchor="middle" x="461" y="-103.84" font-family="Noto Sans CJK SC" font-size="10.20" fill="#332017">P4 · ROS / 主站影子链</text>
<text text-anchor="middle" x="461" y="-92.84" font-family="Noto Sans CJK SC" font-size="10.20" fill="#332017">planning&#45;only + SIL</text>
</g>
<!-- g3&#45;&gt;p4 -->
<g id="edge7" class="edge">
<title>g3&#45;&gt;p4</title>
<path fill="none" stroke="#76513b" stroke-width="1.25" d="M357.06,-101C366.28,-101 379.31,-101 389.2,-101"/>
<polygon fill="#76513b" stroke="#76513b" stroke-width="1.25" points="389.32,-103.45 396.32,-101 389.32,-98.55 389.32,-103.45"/>
</g>
<!-- g4 -->
<g id="node10" class="node">
<title>g4</title>
<polygon fill="#f4dfd7" stroke="#8a4037" stroke-width="1.15" points="643,-119 565,-119 565,-83 649,-83 649,-113 643,-119"/>
<polyline fill="none" stroke="#8a4037" stroke-width="1.15" points="643,-119 643,-113 "/>
<polyline fill="none" stroke="#8a4037" stroke-width="1.15" points="649,-113 643,-113 "/>
<text text-anchor="middle" x="607" y="-103.84" font-family="Noto Sans CJK SC" font-size="10.20" fill="#332017">Gate</text>
<text text-anchor="middle" x="607" y="-92.84" font-family="Noto Sans CJK SC" font-size="10.20" fill="#332017">无双执行权威</text>
</g>
<!-- p4&#45;&gt;g4 -->
<g id="edge8" class="edge">
<title>p4&#45;&gt;g4</title>
<path fill="none" stroke="#76513b" stroke-width="1.25" d="M525.6,-101C536.14,-101 549.06,-101 557.63,-101"/>
<polygon fill="#76513b" stroke="#76513b" stroke-width="1.25" points="557.7,-103.45 564.7,-101 557.7,-98.55 557.7,-103.45"/>
</g>
<!-- p5 -->
<g id="node11" class="node">
<title>p5</title>
<path fill="#687157" stroke="#76513b" stroke-width="1.7" d="M809,-119C809,-119 701,-119 701,-119 695,-119 689,-113 689,-107 689,-107 689,-95 689,-95 689,-89 695,-83 701,-83 701,-83 809,-83 809,-83 815,-83 821,-89 821,-95 821,-95 821,-107 821,-107 821,-113 815,-119 809,-119"/>
<text text-anchor="middle" x="755" y="-103.84" font-family="Noto Sans CJK SC" font-size="10.20" fill="#fffaf0">P5 · 切换唯一执行权威</text>
<text text-anchor="middle" x="755" y="-92.84" font-family="Noto Sans CJK SC" font-size="10.20" fill="#fffaf0">分场景放量 + rollback</text>
</g>
<!-- g4&#45;&gt;p5 -->
<g id="edge9" class="edge">
<title>g4&#45;&gt;p5</title>
<path fill="none" stroke="#76513b" stroke-width="1.25" d="M649.05,-101C653.44,-101 656.33,-101 656.33,-101 656.33,-101 669.13,-101 681.7,-101"/>
<polygon fill="#76513b" stroke="#76513b" stroke-width="1.25" points="681.96,-103.45 688.96,-101 681.96,-98.55 681.96,-103.45"/>
</g>
<!-- shadow -->
<g id="node13" class="node">
<title>shadow</title>
<polygon fill="#ddc7aa" stroke="#76513b" stroke-width="1.15" points="408.5,-36 273.5,-36 269.5,-32 269.5,0 404.5,0 408.5,-4 408.5,-36"/>
<polyline fill="none" stroke="#76513b" stroke-width="1.15" points="404.5,-32 269.5,-32 "/>
<polyline fill="none" stroke="#76513b" stroke-width="1.15" points="404.5,-32 404.5,0 "/>
<polyline fill="none" stroke="#76513b" stroke-width="1.15" points="404.5,-32 408.5,-36 "/>
<text text-anchor="middle" x="339" y="-20.84" font-family="Noto Sans CJK SC" font-size="10.20" fill="#332017">新 Runtime</text>
<text text-anchor="middle" x="339" y="-9.84" font-family="Noto Sans CJK SC" font-size="10.20" fill="#332017">只读事实 + planning&#45;only</text>
</g>
<!-- old&#45;&gt;shadow -->
<g id="edge13" class="edge">
<title>old&#45;&gt;shadow</title>
<path fill="none" stroke="#9b6548" stroke-width="1.25" stroke-dasharray="5,2" d="M180.25,-18C207.09,-18 236.24,-18 262.14,-18"/>
<polygon fill="#9b6548" stroke="#9b6548" stroke-width="1.25" points="262.36,-20.45 269.36,-18 262.36,-15.55 262.36,-20.45"/>
<text text-anchor="middle" x="224.75" y="-23.2" font-family="Noto Sans CJK SC" font-size="8.50" fill="#9b6548">record + compare</text>
</g>
<!-- shadow&#45;&gt;p4 -->
<g id="edge14" class="edge">
<title>shadow&#45;&gt;p4</title>
<path fill="none" stroke="#9b6548" stroke-width="1.25" stroke-dasharray="5,2" d="M354.5,-36.01C366.11,-48.76 380,-64 380,-64 380,-64 397.08,-71.59 415.56,-79.8"/>
<polygon fill="#9b6548" stroke="#9b6548" stroke-width="1.25" points="415.01,-82.24 422.4,-82.84 417,-77.76 415.01,-82.24"/>
<text text-anchor="middle" x="398" y="-57.2" font-family="Noto Sans CJK SC" font-size="8.50" fill="#9b6548">evidence</text>
</g>
<!-- authority -->
<g id="node14" class="node">
<title>authority</title>
<polygon fill="#f4dfd7" stroke="#8a4037" stroke-width="1.15" points="569.5,-36 428.5,-36 428.5,0 575.5,0 575.5,-30 569.5,-36"/>
<polyline fill="none" stroke="#8a4037" stroke-width="1.15" points="569.5,-36 569.5,-30 "/>
<polyline fill="none" stroke="#8a4037" stroke-width="1.15" points="575.5,-30 569.5,-30 "/>
<text text-anchor="middle" x="502" y="-20.84" font-family="Noto Sans CJK SC" font-size="10.20" fill="#8a4037">Execution authority token</text>
<text text-anchor="middle" x="502" y="-9.84" font-family="Noto Sans CJK SC" font-size="10.20" fill="#8a4037">任何时刻只能有一个持有者</text>
</g>
<!-- authority&#45;&gt;p5 -->
<g id="edge16" class="edge">
<title>authority&#45;&gt;p5</title>
<path fill="none" stroke="#687157" stroke-width="1.25" d="M555.27,-36.06C596.13,-49.13 652.52,-67.19 694.97,-80.78"/>
<polygon fill="#687157" stroke="#687157" stroke-width="1.25" points="694.24,-83.12 701.65,-82.92 695.73,-78.45 694.24,-83.12"/>
<text text-anchor="middle" x="681.5" y="-57.2" font-family="Noto Sans CJK SC" font-size="8.50" fill="#687157">after approved cutover</text>
</g>
<!-- authority&#45;&gt;old -->
<g id="edge15" class="edge">
<title>authority&#45;&gt;old</title>
<path fill="none" stroke="#8a4037" stroke-width="1.25" d="M428.3,-33.79C422.02,-35.14 418,-36 418,-36 418,-36 276,-58 276,-58 276,-58 238,-58 238,-58 238,-58 200.71,-47.92 163.56,-37.88"/>
<polygon fill="#8a4037" stroke="#8a4037" stroke-width="1.25" points="164.04,-35.47 156.64,-36.01 162.76,-40.2 164.04,-35.47"/>
<text text-anchor="middle" x="257" y="-57.2" font-family="Noto Sans CJK SC" font-size="8.50" fill="#8a4037">before P5</text>
</g>
</g>
</svg>
