<?xml version="1.0" encoding="UTF-8" standalone="no"?>
<!DOCTYPE svg PUBLIC "-//W3C//DTD SVG 1.1//EN"
 "http://www.w3.org/Graphics/SVG/1.1/DTD/svg11.dtd">
<!-- Generated by graphviz version 2.43.0 (0)
 -->
<!-- Title: StartupJobSequence Pages: 1 -->
<svg width="935pt" height="710pt"
 viewBox="0.00 0.00 934.56 709.56" xmlns="http://www.w3.org/2000/svg" xmlns:xlink="http://www.w3.org/1999/xlink">
<g id="graph0" class="graph" transform="scale(1 1) rotate(0) translate(17.28 692.28)">
<title>StartupJobSequence</title>
<g id="clust1" class="cluster">
<title>cluster_startup</title>
<path fill="#f4e8d7" stroke="#76513b" stroke-width="1.35" d="M20,-87C20,-87 244,-87 244,-87 250,-87 256,-93 256,-99 256,-99 256,-655 256,-655 256,-661 250,-667 244,-667 244,-667 20,-667 20,-667 14,-667 8,-661 8,-655 8,-655 8,-99 8,-99 8,-93 14,-87 20,-87"/>
<text text-anchor="middle" x="132" y="-649.4" font-family="Noto Sans CJK SC" font-size="17.00" fill="#332017">应用生命周期 · 每个进程一次</text>
</g>
<g id="clust2" class="cluster">
<title>cluster_job</title>
<path fill="#fff7ea" stroke="#8b6b58" stroke-width="1.35" d="M276,-8C276,-8 716,-8 716,-8 722,-8 728,-14 728,-20 728,-20 728,-655 728,-655 728,-661 722,-667 716,-667 716,-667 276,-667 276,-667 270,-667 264,-661 264,-655 264,-655 264,-20 264,-20 264,-14 270,-8 276,-8"/>
<text text-anchor="middle" x="415.5" y="-649.4" font-family="Noto Sans CJK SC" font-size="17.00" fill="#332017">MotionJob 生命周期 · 每个任务一次</text>
</g>
<!-- manifest -->
<g id="node1" class="node">
<title>manifest</title>
<path fill="#fffaf0" stroke="#76513b" stroke-width="1.15" d="M218.5,-632C218.5,-632 89.5,-632 89.5,-632 83.5,-632 77.5,-626 77.5,-620 77.5,-620 77.5,-608 77.5,-608 77.5,-602 83.5,-596 89.5,-596 89.5,-596 218.5,-596 218.5,-596 224.5,-596 230.5,-602 230.5,-608 230.5,-608 230.5,-620 230.5,-620 230.5,-626 224.5,-632 218.5,-632"/>
<text text-anchor="middle" x="154" y="-617.6" font-family="Noto Sans CJK SC" font-size="10.50" fill="#332017">Runtime Manifest</text>
<text text-anchor="middle" x="154" y="-605.6" font-family="Noto Sans CJK SC" font-size="10.50" fill="#332017">任务类型 + Robot + Runtime</text>
</g>
<!-- app -->
<g id="node2" class="node">
<title>app</title>
<path fill="#4b2f22" stroke="#76513b" stroke-width="1.15" d="M163.5,-553C163.5,-553 42.5,-553 42.5,-553 36.5,-553 30.5,-547 30.5,-541 30.5,-541 30.5,-529 30.5,-529 30.5,-523 36.5,-517 42.5,-517 42.5,-517 163.5,-517 163.5,-517 169.5,-517 175.5,-523 175.5,-529 175.5,-529 175.5,-541 175.5,-541 175.5,-547 169.5,-553 163.5,-553"/>
<text text-anchor="middle" x="103" y="-538.6" font-family="Noto Sans CJK SC" font-size="10.50" fill="#fff8ed">MotionApplication</text>
<text text-anchor="middle" x="103" y="-526.6" font-family="Noto Sans CJK SC" font-size="10.50" fill="#fff8ed">CREATED → REGISTERING</text>
</g>
<!-- manifest&#45;&gt;app -->
<g id="edge1" class="edge">
<title>manifest&#45;&gt;app</title>
<path fill="none" stroke="#76513b" stroke-width="1.2" d="M142.68,-595.91C135.48,-585.05 126.08,-570.84 118.23,-558.99"/>
<polygon fill="#76513b" stroke="#76513b" stroke-width="1.2" points="120.03,-557.4 114.29,-553.04 116.06,-560.02 120.03,-557.4"/>
</g>
<!-- compile -->
<g id="node5" class="node">
<title>compile</title>
<path fill="#fffaf0" stroke="#76513b" stroke-width="1.15" d="M236,-500C236,-500 142,-500 142,-500 136,-500 130,-494 130,-488 130,-488 130,-476 130,-476 130,-470 136,-464 142,-464 142,-464 236,-464 236,-464 242,-464 248,-470 248,-476 248,-476 248,-488 248,-488 248,-494 242,-500 236,-500"/>
<text text-anchor="middle" x="189" y="-485.6" font-family="Noto Sans CJK SC" font-size="10.50" fill="#332017">WorkflowCompiler</text>
<text text-anchor="middle" x="189" y="-473.6" font-family="Noto Sans CJK SC" font-size="10.50" fill="#332017">配置 → 类型化流程图</text>
</g>
<!-- manifest&#45;&gt;compile -->
<g id="edge4" class="edge">
<title>manifest&#45;&gt;compile</title>
<path fill="none" stroke="#76513b" stroke-width="1.2" d="M163.37,-595.97C173.12,-578.23 187,-553 187,-553 187,-553 187.73,-527.42 188.31,-507.19"/>
<polygon fill="#76513b" stroke="#76513b" stroke-width="1.2" points="190.69,-507.17 188.51,-500.3 185.93,-507.03 190.69,-507.17"/>
<text text-anchor="middle" x="195.5" y="-572.12" font-family="Noto Sans CJK SC" font-size="8.60" fill="#76513b">workflow</text>
</g>
<!-- install -->
<g id="node3" class="node">
<title>install</title>
<path fill="#fffaf0" stroke="#76513b" stroke-width="1.15" d="M205.5,-447C205.5,-447 28.5,-447 28.5,-447 22.5,-447 16.5,-441 16.5,-435 16.5,-435 16.5,-423 16.5,-423 16.5,-417 22.5,-411 28.5,-411 28.5,-411 205.5,-411 205.5,-411 211.5,-411 217.5,-417 217.5,-423 217.5,-423 217.5,-435 217.5,-435 217.5,-441 211.5,-447 205.5,-447"/>
<text text-anchor="middle" x="117" y="-432.6" font-family="Noto Sans CJK SC" font-size="10.50" fill="#332017">install packs</text>
<text text-anchor="middle" x="117" y="-420.6" font-family="Noto Sans CJK SC" font-size="10.50" fill="#332017">Task / Algorithm / Runtime / Observer</text>
</g>
<!-- app&#45;&gt;install -->
<g id="edge2" class="edge">
<title>app&#45;&gt;install</title>
<path fill="none" stroke="#76513b" stroke-width="1.2" d="M105.31,-516.83C107.61,-499.74 111.16,-473.37 113.75,-454.17"/>
<polygon fill="#76513b" stroke="#76513b" stroke-width="1.2" points="116.14,-454.26 114.68,-447.2 111.42,-453.62 116.14,-454.26"/>
</g>
<!-- freeze -->
<g id="node4" class="node">
<title>freeze</title>
<path fill="#ddc7aa" stroke="#76513b" stroke-width="1.15" d="M149,-368C149,-368 39,-368 39,-368 33,-368 27,-362 27,-356 27,-356 27,-344 27,-344 27,-338 33,-332 39,-332 39,-332 149,-332 149,-332 155,-332 161,-338 161,-344 161,-344 161,-356 161,-356 161,-362 155,-368 149,-368"/>
<text text-anchor="middle" x="94" y="-353.6" font-family="Noto Sans CJK SC" font-size="10.50" fill="#332017">RegistryHub.freeze()</text>
<text text-anchor="middle" x="94" y="-341.6" font-family="Noto Sans CJK SC" font-size="10.50" fill="#332017">注册结束，不再接受修改</text>
</g>
<!-- install&#45;&gt;freeze -->
<g id="edge3" class="edge">
<title>install&#45;&gt;freeze</title>
<path fill="none" stroke="#76513b" stroke-width="1.2" d="M111.9,-410.91C108.71,-400.24 104.56,-386.36 101.06,-374.65"/>
<polygon fill="#76513b" stroke="#76513b" stroke-width="1.2" points="103.32,-373.88 99.09,-368.04 98.76,-375.24 103.32,-373.88"/>
</g>
<!-- bind -->
<g id="node6" class="node">
<title>bind</title>
<path fill="#fffaf0" stroke="#76513b" stroke-width="1.15" d="M185,-289C185,-289 83,-289 83,-289 77,-289 71,-283 71,-277 71,-277 71,-265 71,-265 71,-259 77,-253 83,-253 83,-253 185,-253 185,-253 191,-253 197,-259 197,-265 197,-265 197,-277 197,-277 197,-283 191,-289 185,-289"/>
<text text-anchor="middle" x="134" y="-274.6" font-family="Noto Sans CJK SC" font-size="10.50" fill="#332017">RuntimeGraphBuilder</text>
<text text-anchor="middle" x="134" y="-262.6" font-family="Noto Sans CJK SC" font-size="10.50" fill="#332017">角色 + 依赖 → 实例</text>
</g>
<!-- freeze&#45;&gt;bind -->
<g id="edge5" class="edge">
<title>freeze&#45;&gt;bind</title>
<path fill="none" stroke="#76513b" stroke-width="1.2" d="M102.88,-331.91C108.47,-321.14 115.76,-307.1 121.89,-295.32"/>
<polygon fill="#76513b" stroke="#76513b" stroke-width="1.2" points="124.12,-296.17 125.15,-289.04 119.9,-293.98 124.12,-296.17"/>
<text text-anchor="middle" x="132" y="-308.12" font-family="Noto Sans CJK SC" font-size="8.60" fill="#76513b">factories</text>
</g>
<!-- compile&#45;&gt;bind -->
<g id="edge6" class="edge">
<title>compile&#45;&gt;bind</title>
<path fill="none" stroke="#76513b" stroke-width="1.2" d="M209.47,-463.6C219.31,-455.24 229,-447 229,-447 229,-447 229,-411 229,-411 229,-411 196,-394 196,-394 196,-394 173,-332 173,-332 173,-332 159.99,-311.99 149,-295.08"/>
<polygon fill="#76513b" stroke="#76513b" stroke-width="1.2" points="150.77,-293.44 145.07,-289.03 146.78,-296.03 150.77,-293.44"/>
<text text-anchor="middle" x="227.5" y="-387.12" font-family="Noto Sans CJK SC" font-size="8.60" fill="#76513b">compiled graph</text>
</g>
<!-- probe -->
<g id="node7" class="node">
<title>probe</title>
<path fill="#fffaf0" stroke="#76513b" stroke-width="1.15" d="M185.5,-210C185.5,-210 82.5,-210 82.5,-210 76.5,-210 70.5,-204 70.5,-198 70.5,-198 70.5,-186 70.5,-186 70.5,-180 76.5,-174 82.5,-174 82.5,-174 185.5,-174 185.5,-174 191.5,-174 197.5,-180 197.5,-186 197.5,-186 197.5,-198 197.5,-198 197.5,-204 191.5,-210 185.5,-210"/>
<text text-anchor="middle" x="134" y="-195.6" font-family="Noto Sans CJK SC" font-size="10.50" fill="#332017">Compatibility + Health</text>
<text text-anchor="middle" x="134" y="-183.6" font-family="Noto Sans CJK SC" font-size="10.50" fill="#332017">合同 / 资源 / warmup</text>
</g>
<!-- bind&#45;&gt;probe -->
<g id="edge7" class="edge">
<title>bind&#45;&gt;probe</title>
<path fill="none" stroke="#76513b" stroke-width="1.2" d="M134,-252.91C134,-242.34 134,-228.62 134,-216.98"/>
<polygon fill="#76513b" stroke="#76513b" stroke-width="1.2" points="136.38,-216.84 134,-210.04 131.62,-216.84 136.38,-216.84"/>
</g>
<!-- admit -->
<g id="node11" class="node">
<title>admit</title>
<path fill="#fffaf0" stroke="#76513b" stroke-width="1.15" d="M566.5,-553C566.5,-553 471.5,-553 471.5,-553 465.5,-553 459.5,-547 459.5,-541 459.5,-541 459.5,-529 459.5,-529 459.5,-523 465.5,-517 471.5,-517 471.5,-517 566.5,-517 566.5,-517 572.5,-517 578.5,-523 578.5,-529 578.5,-529 578.5,-541 578.5,-541 578.5,-547 572.5,-553 566.5,-553"/>
<text text-anchor="middle" x="519" y="-538.6" font-family="Noto Sans CJK SC" font-size="10.50" fill="#332017">JobManager</text>
<text text-anchor="middle" x="519" y="-526.6" font-family="Noto Sans CJK SC" font-size="10.50" fill="#332017">准入 / 幂等 / 取消令牌</text>
</g>
<!-- bind&#45;&gt;admit -->
<g id="edge26" class="edge">
<title>bind&#45;&gt;admit</title>
<path fill="none" stroke="#76513b" stroke-width="1.2" d="M197.23,-280.6C228.24,-284.82 259,-289 259,-289 259,-289 637,-306 637,-306 637,-306 637,-315 637,-315 637,-315 571,-447 571,-447 571,-447 548.23,-485.1 532.82,-510.88"/>
<polygon fill="#76513b" stroke="#76513b" stroke-width="1.2" points="530.72,-509.75 529.27,-516.81 534.81,-512.2 530.72,-509.75"/>
<text text-anchor="middle" x="643.5" y="-387.12" font-family="Noto Sans CJK SC" font-size="8.60" fill="#76513b">frozen RuntimeGraph</text>
</g>
<!-- ready -->
<g id="node8" class="node">
<title>ready</title>
<path fill="#687157" stroke="#76513b" stroke-width="1.7" d="M107.5,-131C107.5,-131 28.5,-131 28.5,-131 22.5,-131 16.5,-125 16.5,-119 16.5,-119 16.5,-107 16.5,-107 16.5,-101 22.5,-95 28.5,-95 28.5,-95 107.5,-95 107.5,-95 113.5,-95 119.5,-101 119.5,-107 119.5,-107 119.5,-119 119.5,-119 119.5,-125 113.5,-131 107.5,-131"/>
<text text-anchor="middle" x="68" y="-116.6" font-family="Noto Sans CJK SC" font-size="10.50" fill="#fffaf0">READY</text>
<text text-anchor="middle" x="68" y="-104.6" font-family="Noto Sans CJK SC" font-size="10.50" fill="#fffaf0">开放 Task Ingress</text>
</g>
<!-- probe&#45;&gt;ready -->
<g id="edge8" class="edge">
<title>probe&#45;&gt;ready</title>
<path fill="none" stroke="#76513b" stroke-width="1.2" d="M119.35,-173.91C109.87,-162.85 97.42,-148.32 87.15,-136.34"/>
<polygon fill="#76513b" stroke="#76513b" stroke-width="1.2" points="88.84,-134.66 82.61,-131.04 85.22,-137.75 88.84,-134.66"/>
</g>
<!-- startup_failed -->
<g id="node9" class="node">
<title>startup_failed</title>
<path fill="#f4dfd7" stroke="#8a4037" stroke-width="1.15" d="M235.5,-131C235.5,-131 154.5,-131 154.5,-131 148.5,-131 142.5,-125 142.5,-119 142.5,-119 142.5,-107 142.5,-107 142.5,-101 148.5,-95 154.5,-95 154.5,-95 235.5,-95 235.5,-95 241.5,-95 247.5,-101 247.5,-107 247.5,-107 247.5,-119 247.5,-119 247.5,-125 241.5,-131 235.5,-131"/>
<text text-anchor="middle" x="195" y="-116.6" font-family="Noto Sans CJK SC" font-size="10.50" fill="#8a4037">STARTUP_FAILED</text>
<text text-anchor="middle" x="195" y="-104.6" font-family="Noto Sans CJK SC" font-size="10.50" fill="#8a4037">入口保持关闭</text>
</g>
<!-- probe&#45;&gt;startup_failed -->
<g id="edge9" class="edge">
<title>probe&#45;&gt;startup_failed</title>
<path fill="none" stroke="#8a4037" stroke-width="1.2" stroke-dasharray="5,2" d="M147.54,-173.91C156.23,-162.95 167.6,-148.58 177.04,-136.67"/>
<polygon fill="#8a4037" stroke="#8a4037" stroke-width="1.2" points="179.14,-137.85 181.5,-131.04 175.41,-134.89 179.14,-137.85"/>
<text text-anchor="middle" x="203" y="-150.12" font-family="Noto Sans CJK SC" font-size="8.60" fill="#8a4037">typed startup error</text>
</g>
<!-- request -->
<g id="node10" class="node">
<title>request</title>
<path fill="#fffaf0" stroke="#76513b" stroke-width="1.15" d="M586.5,-632C586.5,-632 451.5,-632 451.5,-632 445.5,-632 439.5,-626 439.5,-620 439.5,-620 439.5,-608 439.5,-608 439.5,-602 445.5,-596 451.5,-596 451.5,-596 586.5,-596 586.5,-596 592.5,-596 598.5,-602 598.5,-608 598.5,-608 598.5,-620 598.5,-620 598.5,-626 592.5,-632 586.5,-632"/>
<text text-anchor="middle" x="519" y="-617.6" font-family="Noto Sans CJK SC" font-size="10.50" fill="#332017">MotionTaskRequest</text>
<text text-anchor="middle" x="519" y="-605.6" font-family="Noto Sans CJK SC" font-size="10.50" fill="#332017">job_id + task_type + payload</text>
</g>
<!-- ready&#45;&gt;request -->
<g id="edge25" class="edge">
<title>ready&#45;&gt;request</title>
<path fill="none" stroke="#687157" stroke-width="1.2" stroke-dasharray="5,2" d="M119.74,-127.96C126.42,-129.76 131,-131 131,-131 131,-131 785,-148 785,-148 785,-148 785,-157 785,-157 785,-157 691,-394 691,-394 691,-394 590,-553 590,-553 590,-553 564.84,-574.26 544.48,-591.47"/>
<polygon fill="#687157" stroke="#687157" stroke-width="1.2" points="542.81,-589.76 539.16,-595.97 545.89,-593.4 542.81,-589.76"/>
<text text-anchor="middle" x="736.5" y="-347.62" font-family="Noto Sans CJK SC" font-size="8.60" fill="#687157">open once</text>
</g>
<!-- request&#45;&gt;admit -->
<g id="edge10" class="edge">
<title>request&#45;&gt;admit</title>
<path fill="none" stroke="#76513b" stroke-width="1.2" d="M519,-595.91C519,-585.34 519,-571.62 519,-559.98"/>
<polygon fill="#76513b" stroke="#76513b" stroke-width="1.2" points="521.38,-559.84 519,-553.04 516.62,-559.84 521.38,-559.84"/>
</g>
<!-- snapshot -->
<g id="node12" class="node">
<title>snapshot</title>
<path fill="#efe1cf" stroke="#76513b" stroke-width="1.15" d="M499,-447C499,-447 389,-447 389,-447 383,-447 377,-441 377,-435 377,-435 377,-423 377,-423 377,-417 383,-411 389,-411 389,-411 499,-411 499,-411 505,-411 511,-417 511,-423 511,-423 511,-435 511,-435 511,-441 505,-447 499,-447"/>
<text text-anchor="middle" x="444" y="-432.6" font-family="Noto Sans CJK SC" font-size="10.50" fill="#332017">SnapshotManager</text>
<text text-anchor="middle" x="444" y="-420.6" font-family="Noto Sans CJK SC" font-size="10.50" fill="#332017">固定 State / Scene / Tool</text>
</g>
<!-- admit&#45;&gt;snapshot -->
<g id="edge11" class="edge">
<title>admit&#45;&gt;snapshot</title>
<path fill="none" stroke="#76513b" stroke-width="1.2" d="M506.62,-516.83C494.02,-499.36 474.43,-472.2 460.52,-452.91"/>
<polygon fill="#76513b" stroke="#76513b" stroke-width="1.2" points="462.31,-451.32 456.4,-447.2 458.45,-454.11 462.31,-451.32"/>
<text text-anchor="middle" x="507" y="-479.62" font-family="Noto Sans CJK SC" font-size="8.60" fill="#76513b">acquire</text>
</g>
<!-- mailbox -->
<g id="node13" class="node">
<title>mailbox</title>
<path fill="#ddc7aa" stroke="#76513b" stroke-width="1.6" d="M576.5,-368C576.5,-368 485.5,-368 485.5,-368 479.5,-368 473.5,-362 473.5,-356 473.5,-356 473.5,-344 473.5,-344 473.5,-338 479.5,-332 485.5,-332 485.5,-332 576.5,-332 576.5,-332 582.5,-332 588.5,-338 588.5,-344 588.5,-344 588.5,-356 588.5,-356 588.5,-362 582.5,-368 576.5,-368"/>
<text text-anchor="middle" x="531" y="-353.6" font-family="Noto Sans CJK SC" font-size="10.50" fill="#332017">Job Mailbox</text>
<text text-anchor="middle" x="531" y="-341.6" font-family="Noto Sans CJK SC" font-size="10.50" fill="#332017">Result 唯一可靠入口</text>
</g>
<!-- admit&#45;&gt;mailbox -->
<g id="edge12" class="edge">
<title>admit&#45;&gt;mailbox</title>
<path fill="none" stroke="#76513b" stroke-width="1.2" d="M523.09,-516.6C525.06,-508.24 527,-500 527,-500 527,-500 544,-394 544,-394 544,-394 544,-385 544,-385 544,-385 542.3,-380.56 540.13,-374.89"/>
<polygon fill="#76513b" stroke="#76513b" stroke-width="1.2" points="542.3,-373.9 537.65,-368.4 537.86,-375.6 542.3,-373.9"/>
<text text-anchor="middle" x="553.5" y="-426.62" font-family="Noto Sans CJK SC" font-size="8.60" fill="#76513b">create</text>
</g>
<!-- snapshot&#45;&gt;mailbox -->
<g id="edge13" class="edge">
<title>snapshot&#45;&gt;mailbox</title>
<path fill="none" stroke="#76513b" stroke-width="1.2" d="M463.31,-410.91C476.04,-399.65 492.82,-384.8 506.48,-372.7"/>
<polygon fill="#76513b" stroke="#76513b" stroke-width="1.2" points="508.23,-374.33 511.75,-368.04 505.08,-370.77 508.23,-374.33"/>
<text text-anchor="middle" x="514.5" y="-387.12" font-family="Noto Sans CJK SC" font-size="8.60" fill="#76513b">snapshot_id</text>
</g>
<!-- engine -->
<g id="node14" class="node">
<title>engine</title>
<path fill="#4b2f22" stroke="#76513b" stroke-width="1.15" d="M572,-289C572,-289 490,-289 490,-289 484,-289 478,-283 478,-277 478,-277 478,-265 478,-265 478,-259 484,-253 490,-253 490,-253 572,-253 572,-253 578,-253 584,-259 584,-265 584,-265 584,-277 584,-277 584,-283 578,-289 572,-289"/>
<text text-anchor="middle" x="531" y="-274.6" font-family="Noto Sans CJK SC" font-size="10.50" fill="#fff8ed">MotionEngine</text>
<text text-anchor="middle" x="531" y="-262.6" font-family="Noto Sans CJK SC" font-size="10.50" fill="#fff8ed">串行修改 JobState</text>
</g>
<!-- mailbox&#45;&gt;engine -->
<g id="edge14" class="edge">
<title>mailbox&#45;&gt;engine</title>
<path fill="none" stroke="#76513b" stroke-width="1.2" d="M531,-331.91C531,-321.34 531,-307.62 531,-295.98"/>
<polygon fill="#76513b" stroke="#76513b" stroke-width="1.2" points="533.38,-295.84 531,-289.04 528.62,-295.84 533.38,-295.84"/>
<text text-anchor="middle" x="560" y="-308.12" font-family="Noto Sans CJK SC" font-size="8.60" fill="#76513b">ordered Result</text>
</g>
<!-- engine&#45;&gt;mailbox -->
<g id="edge15" class="edge">
<title>engine&#45;&gt;mailbox</title>
<path fill="none" stroke="#9b6548" stroke-width="1.2" d="M562.87,-289.2C578.5,-297.63 594,-306 594,-306 594,-306 594,-315 594,-315 594,-315 582.34,-321.29 569.05,-328.46"/>
<polygon fill="#9b6548" stroke="#9b6548" stroke-width="1.2" points="567.72,-326.48 562.87,-331.8 569.98,-330.67 567.72,-326.48"/>
<text text-anchor="middle" x="613" y="-308.12" font-family="Noto Sans CJK SC" font-size="8.60" fill="#9b6548">new state</text>
</g>
<!-- scheduler -->
<g id="node15" class="node">
<title>scheduler</title>
<path fill="#fffaf0" stroke="#76513b" stroke-width="1.15" d="M402,-210C402,-210 284,-210 284,-210 278,-210 272,-204 272,-198 272,-198 272,-186 272,-186 272,-180 278,-174 284,-174 284,-174 402,-174 402,-174 408,-174 414,-180 414,-186 414,-186 414,-198 414,-198 414,-204 408,-210 402,-210"/>
<text text-anchor="middle" x="343" y="-195.6" font-family="Noto Sans CJK SC" font-size="10.50" fill="#332017">OperationScheduler</text>
<text text-anchor="middle" x="343" y="-183.6" font-family="Noto Sans CJK SC" font-size="10.50" fill="#332017">有界并发 + resource lease</text>
</g>
<!-- engine&#45;&gt;scheduler -->
<g id="edge16" class="edge">
<title>engine&#45;&gt;scheduler</title>
<path fill="none" stroke="#76513b" stroke-width="1.6" d="M489.28,-252.91C460.19,-241 421.31,-225.08 390.95,-212.64"/>
<polygon fill="#76513b" stroke="#76513b" stroke-width="1.6" points="391.8,-210.42 384.61,-210.04 390,-214.82 391.8,-210.42"/>
<text text-anchor="middle" x="475.5" y="-229.12" font-family="Noto Sans CJK SC" font-size="8.60" fill="#76513b">typed Command</text>
</g>
<!-- finish -->
<g id="node20" class="node">
<title>finish</title>
<path fill="#687157" stroke="#76513b" stroke-width="1.15" d="M613,-210C613,-210 449,-210 449,-210 443,-210 437,-204 437,-198 437,-198 437,-186 437,-186 437,-180 443,-174 449,-174 449,-174 613,-174 613,-174 619,-174 625,-180 625,-186 625,-186 625,-198 625,-198 625,-204 619,-210 613,-210"/>
<text text-anchor="middle" x="531" y="-195.6" font-family="Noto Sans CJK SC" font-size="10.50" fill="#fffaf0">SUCCEEDED / FAILED / CANCELLED</text>
<text text-anchor="middle" x="531" y="-183.6" font-family="Noto Sans CJK SC" font-size="10.50" fill="#fffaf0">最终 Result + event chain</text>
</g>
<!-- engine&#45;&gt;finish -->
<g id="edge24" class="edge">
<title>engine&#45;&gt;finish</title>
<path fill="none" stroke="#76513b" stroke-width="1.2" d="M531,-252.91C531,-242.34 531,-228.62 531,-216.98"/>
<polygon fill="#76513b" stroke="#76513b" stroke-width="1.2" points="533.38,-216.84 531,-210.04 528.62,-216.84 533.38,-216.84"/>
<text text-anchor="middle" x="567.5" y="-229.12" font-family="Noto Sans CJK SC" font-size="8.60" fill="#76513b">terminal transition</text>
</g>
<!-- eventhub -->
<g id="node21" class="node">
<title>eventhub</title>
<polygon fill="#efe1cf" stroke="#9b6548" stroke-width="1.15" points="894,-52 736,-52 736,-16 900,-16 900,-46 894,-52"/>
<polyline fill="none" stroke="#9b6548" stroke-width="1.15" points="894,-52 894,-46 "/>
<polyline fill="none" stroke="#9b6548" stroke-width="1.15" points="900,-46 894,-46 "/>
<text text-anchor="middle" x="818" y="-37.6" font-family="Noto Sans CJK SC" font-size="10.50" fill="#332017">EventHub + Telemetry</text>
<text text-anchor="middle" x="818" y="-25.6" font-family="Noto Sans CJK SC" font-size="10.50" fill="#332017">旁路 Observer，不写 JobState</text>
</g>
<!-- engine&#45;&gt;eventhub -->
<g id="edge27" class="edge">
<title>engine&#45;&gt;eventhub</title>
<path fill="none" stroke="#9b6548" stroke-width="1.2" stroke-dasharray="5,2" d="M584.01,-253.6C641.45,-235.84 725,-210 725,-210 725,-210 780.42,-105.71 805.7,-58.15"/>
<polygon fill="#9b6548" stroke="#9b6548" stroke-width="1.2" points="807.82,-59.22 808.91,-52.1 803.62,-56.99 807.82,-59.22"/>
<text text-anchor="middle" x="768.5" y="-150.12" font-family="Noto Sans CJK SC" font-size="8.60" fill="#9b6548">Event</text>
</g>
<!-- ikop -->
<g id="node16" class="node">
<title>ikop</title>
<path fill="#fffaf0" stroke="#76513b" stroke-width="1.15" d="M355,-131C355,-131 299,-131 299,-131 293,-131 287,-125 287,-119 287,-119 287,-107 287,-107 287,-101 293,-95 299,-95 299,-95 355,-95 355,-95 361,-95 367,-101 367,-107 367,-107 367,-119 367,-119 367,-125 361,-131 355,-131"/>
<text text-anchor="middle" x="327" y="-110.6" font-family="Noto Sans CJK SC" font-size="10.50" fill="#332017">IK Operation</text>
</g>
<!-- scheduler&#45;&gt;ikop -->
<g id="edge17" class="edge">
<title>scheduler&#45;&gt;ikop</title>
<path fill="none" stroke="#76513b" stroke-width="1.2" d="M339.45,-173.91C337.25,-163.34 334.4,-149.62 331.98,-137.98"/>
<polygon fill="#76513b" stroke="#76513b" stroke-width="1.2" points="334.25,-137.21 330.54,-131.04 329.59,-138.18 334.25,-137.21"/>
</g>
<!-- planop -->
<g id="node17" class="node">
<title>planop</title>
<path fill="#fffaf0" stroke="#76513b" stroke-width="1.15" d="M493.5,-131C493.5,-131 402.5,-131 402.5,-131 396.5,-131 390.5,-125 390.5,-119 390.5,-119 390.5,-107 390.5,-107 390.5,-101 396.5,-95 402.5,-95 402.5,-95 493.5,-95 493.5,-95 499.5,-95 505.5,-101 505.5,-107 505.5,-107 505.5,-119 505.5,-119 505.5,-125 499.5,-131 493.5,-131"/>
<text text-anchor="middle" x="448" y="-110.6" font-family="Noto Sans CJK SC" font-size="10.50" fill="#332017">Planning Operation</text>
</g>
<!-- scheduler&#45;&gt;planop -->
<g id="edge18" class="edge">
<title>scheduler&#45;&gt;planop</title>
<path fill="none" stroke="#76513b" stroke-width="1.2" d="M366.3,-173.91C381.8,-162.55 402.27,-147.53 418.85,-135.38"/>
<polygon fill="#76513b" stroke="#76513b" stroke-width="1.2" points="420.69,-136.98 424.76,-131.04 417.87,-133.14 420.69,-136.98"/>
</g>
<!-- execop -->
<g id="node18" class="node">
<title>execop</title>
<path fill="#fffaf0" stroke="#76513b" stroke-width="1.15" d="M635,-131C635,-131 541,-131 541,-131 535,-131 529,-125 529,-119 529,-119 529,-107 529,-107 529,-101 535,-95 541,-95 541,-95 635,-95 635,-95 641,-95 647,-101 647,-107 647,-107 647,-119 647,-119 647,-125 641,-131 635,-131"/>
<text text-anchor="middle" x="588" y="-110.6" font-family="Noto Sans CJK SC" font-size="10.50" fill="#332017">Execution Operation</text>
</g>
<!-- scheduler&#45;&gt;execop -->
<g id="edge19" class="edge">
<title>scheduler&#45;&gt;execop</title>
<path fill="none" stroke="#76513b" stroke-width="1.2" d="M397.37,-173.91C435.75,-161.85 487.22,-145.67 527,-133.17"/>
<polygon fill="#76513b" stroke="#76513b" stroke-width="1.2" points="528.01,-135.35 533.78,-131.04 526.58,-130.81 528.01,-135.35"/>
</g>
<!-- join -->
<g id="node19" class="node">
<title>join</title>
<path fill="#fffaf0" stroke="#76513b" stroke-width="1.15" d="M483,-52C483,-52 413,-52 413,-52 407,-52 401,-46 401,-40 401,-40 401,-28 401,-28 401,-22 407,-16 413,-16 413,-16 483,-16 483,-16 489,-16 495,-22 495,-28 495,-28 495,-40 495,-40 495,-46 489,-52 483,-52"/>
<text text-anchor="middle" x="448" y="-37.6" font-family="Noto Sans CJK SC" font-size="10.50" fill="#332017">Join / Barrier</text>
<text text-anchor="middle" x="448" y="-25.6" font-family="Noto Sans CJK SC" font-size="10.50" fill="#332017">等待所需 Result</text>
</g>
<!-- ikop&#45;&gt;join -->
<g id="edge20" class="edge">
<title>ikop&#45;&gt;join</title>
<path fill="none" stroke="#76513b" stroke-width="1.2" d="M353.85,-94.91C372.03,-83.35 396.14,-68 415.41,-55.74"/>
<polygon fill="#76513b" stroke="#76513b" stroke-width="1.2" points="416.76,-57.7 421.22,-52.04 414.21,-53.68 416.76,-57.7"/>
</g>
<!-- planop&#45;&gt;join -->
<g id="edge21" class="edge">
<title>planop&#45;&gt;join</title>
<path fill="none" stroke="#76513b" stroke-width="1.2" d="M448,-94.91C448,-84.34 448,-70.62 448,-58.98"/>
<polygon fill="#76513b" stroke="#76513b" stroke-width="1.2" points="450.38,-58.84 448,-52.04 445.62,-58.84 450.38,-58.84"/>
</g>
<!-- execop&#45;&gt;join -->
<g id="edge22" class="edge">
<title>execop&#45;&gt;join</title>
<path fill="none" stroke="#76513b" stroke-width="1.2" d="M556.93,-94.91C535.72,-83.25 507.53,-67.74 485.13,-55.42"/>
<polygon fill="#76513b" stroke="#76513b" stroke-width="1.2" points="486.09,-53.23 478.98,-52.04 483.79,-57.4 486.09,-53.23"/>
</g>
<!-- execop&#45;&gt;eventhub -->
<g id="edge28" class="edge">
<title>execop&#45;&gt;eventhub</title>
<path fill="none" stroke="#687157" stroke-width="1.2" stroke-dasharray="5,2" d="M637.36,-94.88C671.94,-82.89 712,-69 712,-69 712,-69 734.16,-61.89 758.21,-54.18"/>
<polygon fill="#687157" stroke="#687157" stroke-width="1.2" points="758.94,-56.44 764.69,-52.1 757.49,-51.91 758.94,-56.44"/>
<text text-anchor="middle" x="732" y="-71.12" font-family="Noto Sans CJK SC" font-size="8.60" fill="#687157">Telemetry</text>
</g>
<!-- join&#45;&gt;mailbox -->
<g id="edge23" class="edge">
<title>join&#45;&gt;mailbox</title>
<path fill="none" stroke="#9b6548" stroke-width="1.2" stroke-dasharray="5,2" d="M495.09,-46.61C557.28,-61.93 659,-87 659,-87 659,-87 659,-131 659,-131 659,-131 637,-315 637,-315 637,-315 614.84,-322.11 590.79,-329.82"/>
<polygon fill="#9b6548" stroke="#9b6548" stroke-width="1.2" points="590.06,-327.56 584.31,-331.9 591.51,-332.09 590.06,-327.56"/>
<text text-anchor="middle" x="677.5" y="-189.62" font-family="Noto Sans CJK SC" font-size="8.60" fill="#9b6548">typed Result</text>
</g>
</g>
</svg>
